<?xml version="1.0" standalone="no"?>
<!DOCTYPE svg PUBLIC "-//W3C//DTD SVG 20010904//EN"
 "http://www.w3.org/TR/2001/REC-SVG-20010904/DTD/svg10.dtd">
<svg version="1.0" xmlns="http://www.w3.org/2000/svg"
 width="300.000000pt" height="178.000000pt" viewBox="0 0 300.000000 178.000000"
 preserveAspectRatio="xMidYMid meet">
<metadata>
Created by potrace 1.10, written by Peter Selinger 2001-2011
</metadata>
<g transform="translate(0.000000,178.000000) scale(0.100000,-0.100000)"
fill="#000000" stroke="none">
<path d="M500 1367 c0 -31 -18 -47 -52 -47 l-28 0 0 -395 c0 -347 2 -394 15
-389 24 10 65 -23 65 -51 l0 -25 720 0 720 0 0 25 c0 15 9 31 24 40 34 23 66
5 66 -35 l0 -30 235 0 235 0 0 23 c0 29 29 57 58 57 l22 0 0 390 0 390 -28 0
c-34 0 -52 16 -52 47 l0 23 -235 0 -235 0 0 -24 c0 -56 -69 -63 -85 -8 l-9 32
-718 0 -718 0 0 -23z m92 -19 c-15 -15 -15 -28 0 -28 6 0 8 3 5 7 -4 3 -2 12
4 19 9 11 98 13 435 14 421 0 424 0 424 -21 0 -11 -4 -18 -9 -15 -5 4 -7 -3
-4 -13 6 -22 42 -36 39 -15 -1 7 -5 17 -9 20 -4 4 -7 15 -7 25 0 16 10 18 87
18 65 0 83 -3 75 -11 -15 -15 -15 -28 -1 -28 5 0 8 4 5 9 -14 22 26 30 145 30
l124 0 20 -32 c17 -26 28 -33 62 -35 34 -3 44 1 62 24 11 14 18 30 15 35 -2 4
87 8 198 8 l203 0 15 -32 c9 -19 25 -34 40 -37 22 -5 25 -11 26 -55 2 -36 -3
-54 -14 -64 -16 -13 -16 -13 0 -8 15 5 17 -4 15 -104 -1 -60 -6 -109 -10 -109
-5 0 -5 -6 0 -12 12 -19 11 -72 -2 -80 -7 -5 -7 -8 1 -8 7 0 11 -45 11 -139
l1 -140 -30 -10 c-19 -7 -34 -22 -41 -41 l-11 -30 -204 0 c-134 0 -201 3 -197
10 8 13 -48 70 -69 70 -34 0 -67 -21 -77 -50 l-11 -30 -687 0 -687 0 -11 31
c-7 18 -23 34 -41 41 l-28 11 -1 354 0 354 33 14 c21 9 36 23 40 39 5 22 12
26 42 26 28 0 33 -3 24 -12z"/>
<path d="M781 1339 c-1 -8 6 -24 14 -35 14 -18 14 -18 15 4 0 13 4 20 10 17 6
-3 10 -1 10 6 0 6 -8 9 -20 6 -10 -3 -21 0 -24 7 -2 6 -5 4 -5 -5z"/>
<path d="M894 1342 c3 -5 0 -13 -6 -16 -10 -5 -10 -7 1 -12 11 -5 11 -8 0 -15
-7 -4 -10 -12 -5 -16 4 -4 13 0 20 10 14 18 32 24 21 7 -3 -5 -1 -10 5 -10 7
0 10 6 7 14 -3 7 -1 19 4 25 6 8 5 8 -3 1 -15 -13 -41 -13 -33 -1 3 5 0 13 -6
17 -7 4 -9 3 -5 -4z"/>
<path d="M1021 1339 c-1 -23 21 -39 45 -33 12 3 26 -1 33 -10 17 -20 32 -21
25 -1 -3 8 -11 13 -17 12 -7 -1 -11 4 -9 11 1 8 -2 11 -9 6 -6 -3 -15 -1 -19
7 -7 10 -11 10 -23 0 -13 -10 -16 -9 -20 6 -4 15 -5 15 -6 2z"/>
<path d="M1818 1345 c-3 -6 3 -23 13 -40 l19 -30 0 28 c0 16 4 26 10 22 6 -3
10 -1 10 6 0 6 -8 9 -20 6 -10 -3 -21 0 -23 6 -2 7 -6 7 -9 2z"/>
<path d="M624 1331 c4 -5 1 -11 -6 -13 -9 -3 -9 -6 0 -12 7 -4 12 -2 12 4 0 6
4 9 8 6 12 -7 38 12 29 21 -5 4 -12 1 -17 -7 -7 -10 -10 -11 -10 -2 0 6 -5 12
-11 12 -5 0 -8 -4 -5 -9z"/>
<path d="M755 1317 c12 -10 14 -16 7 -21 -7 -4 -12 -2 -12 4 0 6 -4 8 -10 5
-17 -11 -11 -21 14 -21 13 0 23 5 22 11 -3 18 -17 35 -29 35 -6 0 -3 -6 8 -13z"/>
<path d="M1795 1317 c12 -10 14 -16 7 -21 -7 -4 -12 -2 -12 4 0 6 -4 8 -10 5
-17 -11 -11 -21 14 -21 13 0 23 5 22 11 -3 18 -17 35 -29 35 -6 0 -3 -6 8 -13z"/>
<path d="M1301 1313 c-1 -6 4 -15 9 -18 6 -4 8 -11 5 -16 -4 -5 -1 -9 4 -9 6
0 11 5 11 10 0 6 7 10 15 10 8 0 15 8 14 18 0 10 -3 12 -6 5 -2 -7 -13 -13
-23 -13 -10 0 -21 6 -23 13 -4 9 -6 9 -6 0z"/>
<path d="M2341 1313 c-1 -6 4 -15 9 -18 6 -4 8 -11 5 -16 -4 -5 -1 -9 4 -9 6
0 11 5 11 10 0 6 7 10 15 10 8 0 15 8 14 18 0 10 -3 12 -6 5 -2 -7 -13 -13
-23 -13 -10 0 -21 6 -23 13 -4 9 -6 9 -6 0z"/>
<path d="M1907 1279 c3 -10 14 -26 24 -35 18 -16 19 -16 13 -1 -4 11 -1 17 7
16 20 -1 57 -17 42 -18 -7 -1 -13 -8 -13 -16 0 -18 20 -20 21 -2 0 6 2 22 3
34 1 12 -1 20 -6 17 -5 -3 -24 -7 -44 -9 -29 -3 -34 0 -29 14 3 11 0 18 -8 18
-9 0 -12 -7 -10 -18z"/>
<path d="M1253 1273 c6 -9 -65 -12 -295 -12 -167 0 -327 0 -356 -1 l-52 0 0
-335 1 -335 22 0 c51 0 986 0 1145 0 l172 0 0 335 0 335 -97 0 c-54 1 -192 1
-307 1 -150 0 -214 3 -225 12 -11 9 -13 9 -8 0z m273 -51 c-6 -17 2 -19 106
-20 62 -1 127 -3 143 -4 17 -2 36 1 43 6 9 7 12 -41 12 -229 0 -215 -1 -236
-16 -224 -19 16 -38 19 -137 19 -72 0 -80 2 -103 27 -25 27 -30 28 -137 30
-112 2 -112 2 -138 -27 -15 -16 -25 -31 -23 -33 2 -2 -22 -2 -54 1 -49 3 -61
8 -84 35 l-27 32 -112 -1 c-114 -2 -128 -7 -141 -46 -2 -5 -30 -11 -63 -13
-111 -8 -165 -16 -165 -26 0 -6 -4 -8 -9 -4 -6 3 -10 102 -10 229 0 223 0 224
22 228 12 2 214 4 450 3 409 -1 427 -1 421 17 -4 12 0 18 11 18 11 0 15 -6 11
-18z m-577 -435 c0 -21 -1 -21 -9 -2 -7 18 -8 19 -15 3 -10 -25 -45 -23 -45 1
0 15 7 19 35 19 29 0 35 -3 34 -21z m141 8 c0 -8 4 -15 10 -15 5 0 7 7 4 15
-4 8 -1 15 5 15 6 0 11 -9 11 -20 0 -15 -7 -20 -26 -20 -19 0 -25 4 -20 15 3
8 1 15 -4 15 -6 0 -10 -6 -10 -14 0 -8 -11 -13 -26 -13 -17 0 -24 4 -20 13 3
8 1 14 -4 14 -6 0 -10 -7 -10 -15 0 -8 -9 -15 -20 -15 -13 0 -20 7 -20 18 0
16 9 19 65 20 51 1 65 -2 65 -13z m267 -5 c-1 -14 -8 -20 -24 -20 -27 0 -31
26 -5 33 30 8 31 7 29 -13z m79 -2 c0 -13 -8 -18 -28 -18 -20 0 -26 5 -25 18
2 26 53 26 53 0z m40 11 c10 -17 -13 -36 -27 -22 -12 12 -4 33 11 33 5 0 12
-5 16 -11z m84 -14 c0 -18 -31 -20 -49 -2 -10 8 -12 8 -7 0 3 -6 2 -14 -4 -18
-5 -3 -10 3 -10 14 0 17 6 21 35 21 24 0 35 -5 35 -15z m240 -77 l0 -33 -577
1 -578 2 -3 31 -3 31 580 0 581 0 0 -32z"/>
<path d="M713 1133 c-43 -20 -59 -54 -47 -101 12 -48 57 -74 109 -62 19 4 50
5 68 0 18 -4 43 -3 56 2 16 5 29 3 44 -7 l21 -15 -24 0 c-20 0 -22 -2 -10 -10
8 -6 33 -10 55 -9 85 2 125 -1 125 -11 0 -6 -37 -10 -90 -10 -57 0 -90 4 -90
11 0 5 -5 7 -10 4 -10 -6 -4 -53 9 -68 11 -12 556 -10 579 2 14 7 19 19 17 40
-3 39 -12 51 -38 51 -12 0 -29 5 -37 10 -11 7 16 10 90 11 201 0 192 -3 220
80 21 61 18 74 -18 87 -28 10 -165 7 -182 -3 -6 -3 -10 -3 -10 2 0 7 -38 7
-190 2 -14 -1 -50 1 -81 4 -50 5 -59 3 -77 -16 -20 -21 -20 -25 -6 -67 8 -25
20 -55 26 -67 12 -25 47 -30 66 -11 9 9 12 9 12 -1 0 -7 11 -12 28 -11 45 3
62 1 62 -10 0 -6 -58 -10 -157 -9 -119 1 -152 4 -132 11 28 12 69 65 69 91 0
26 -29 66 -59 81 -33 17 -60 15 -90 -6 -21 -15 -27 -15 -44 -3 -12 8 -31 12
-43 9 -12 -3 -32 0 -44 6 -17 9 -29 9 -50 0 -19 -8 -39 -9 -63 -2 -26 7 -42 6
-64 -5z m61 -19 c26 -10 18 -23 -16 -26 -27 -2 -34 -8 -36 -30 -4 -30 30 -58
44 -36 4 6 2 14 -4 16 -19 6 -14 22 7 22 13 0 20 -9 23 -30 6 -37 3 -40 -35
-40 -38 0 -67 25 -67 59 0 31 8 44 35 59 24 13 28 14 49 6z m124 -10 c43 -30
21 -114 -30 -114 -53 0 -77 71 -38 110 24 24 38 25 68 4z m70 -37 c3 -38 7
-46 24 -49 41 -6 32 -28 -11 -28 l-41 0 0 66 c0 48 3 65 13 62 6 -3 13 -25 15
-51z m155 21 c9 -11 17 -27 17 -35 0 -25 -47 -63 -80 -63 l-30 0 0 59 c0 48 3
60 18 64 26 7 55 -3 75 -25z m177 11 c0 -5 -7 -9 -15 -9 -11 0 -15 -12 -15
-50 0 -38 -4 -50 -15 -50 -11 0 -15 12 -15 50 0 43 -3 50 -20 50 -18 0 -26 10
-16 21 8 8 96 -3 96 -12z m147 4 c3 -7 -8 -13 -24 -15 -24 -3 -28 -8 -28 -33
0 -25 4 -30 28 -33 37 -4 36 -32 -1 -32 -62 0 -86 90 -32 117 29 15 52 13 57
-4z m45 -19 l-3 -29 20 29 c11 16 27 31 35 32 20 3 20 -10 1 -26 -19 -16 -19
-39 0 -64 19 -25 19 -36 2 -36 -8 0 -19 12 -25 26 -14 28 -36 23 -27 -7 4 -13
2 -19 -9 -19 -13 0 -16 13 -16 66 0 48 3 65 13 61 7 -2 11 -16 9 -33z m268 15
c0 -5 -9 -9 -20 -9 -17 0 -20 -7 -20 -50 0 -38 -4 -50 -15 -50 -11 0 -15 12
-15 50 0 38 -4 50 -15 50 -8 0 -15 4 -15 9 0 6 19 11 43 13 47 3 57 1 57 -13z
m-420 -49 c0 -47 -3 -60 -15 -60 -12 0 -15 13 -15 60 0 47 3 60 15 60 12 0 15
-13 15 -60z m310 50 c0 -5 -11 -10 -25 -10 -14 0 -25 -4 -25 -10 0 -5 11 -10
25 -10 16 0 25 -6 25 -15 0 -9 -9 -15 -25 -15 -14 0 -25 -4 -25 -10 0 -5 11
-10 25 -10 16 0 25 -6 25 -15 0 -11 -11 -15 -37 -15 l-38 0 0 60 0 60 37 0
c21 0 38 -4 38 -10z m-440 -170 c0 -3 18 -4 40 -2 24 3 40 0 40 -7 0 -6 -31
-10 -85 -10 -76 0 -95 5 -80 21 6 6 85 4 85 -2z m170 -11 c0 -5 -18 -9 -40 -9
-26 0 -40 5 -40 13 0 9 12 11 40 9 22 -2 40 -8 40 -13z m130 5 c0 -7 -23 -12
-60 -13 -52 -1 -70 5 -56 20 10 10 116 3 116 -7z m-506 -39 c4 -12 -3 -15 -34
-15 -48 0 -53 17 -7 23 17 2 33 5 33 5 1 1 4 -5 8 -13z m304 6 c19 -1 32 -6
32 -14 0 -9 -16 -12 -57 -10 -32 2 -104 3 -160 3 -67 0 -103 3 -103 10 0 7 33
10 95 9 53 -1 98 1 101 4 3 3 18 4 32 2 15 -2 42 -4 60 -4z m87 0 c3 -6 17 -6
35 -1 16 5 37 7 47 5 10 -2 21 -4 26 -4 4 -1 7 -5 7 -11 0 -6 -33 -10 -80 -10
-72 0 -101 10 -67 23 19 8 25 8 32 -2z"/>
<path d="M847 1084 c-12 -12 -8 -51 6 -62 20 -17 39 2 35 34 -3 27 -26 43 -41
28z"/>
<path d="M1060 1050 c0 -40 5 -46 26 -32 27 18 19 72 -11 72 -11 0 -15 -12
-15 -40z"/>
<path d="M1040 703 c0 -15 2 -16 10 -3 6 10 10 11 10 3 0 -7 6 -13 14 -13 17
0 31 18 21 28 -3 3 -10 0 -15 -8 -7 -10 -10 -11 -10 -2 0 6 -7 12 -15 12 -8 0
-15 -8 -15 -17z"/>
<path d="M1146 704 c-5 -13 24 -12 46 2 7 4 8 3 4 -4 -4 -7 -1 -12 8 -12 10 0
13 6 10 15 -7 18 -61 17 -68 -1z"/>
<path d="M1260 708 c0 -4 5 -10 10 -13 6 -3 10 -1 10 6 0 8 4 8 15 -1 9 -8 15
-8 15 -2 0 6 10 13 23 15 12 2 1 4 -25 3 -27 0 -48 -4 -48 -8z"/>
<path d="M2093 1253 c-3 -7 -6 -30 -7 -50 0 -21 -5 -41 -11 -45 -6 -5 -5 -8 2
-8 17 0 16 -209 -1 -229 -8 -11 -8 -13 0 -8 8 4 11 -2 10 -18 0 -14 -5 -25
-10 -25 -5 0 -4 -6 1 -12 15 -19 17 -268 3 -268 -6 0 -8 -4 -5 -10 3 -6 11
-10 16 -10 6 0 7 5 4 10 -4 6 35 10 110 10 90 0 115 -3 109 -12 -6 -10 -4 -10
7 0 7 7 38 12 71 12 l58 0 0 218 c0 122 4 211 9 204 7 -11 9 -11 14 2 4 10 1
16 -8 16 -11 0 -15 23 -17 116 l-3 115 -174 2 c-130 2 -175 -1 -178 -10z m284
-35 c8 -14 13 -147 6 -161 -3 -4 -14 4 -25 18 -20 25 -35 125 -22 146 8 13 31
11 41 -3z m-67 -288 l0 -290 -60 0 -60 0 0 290 0 290 60 0 60 0 0 -290z m38
49 c1 -63 -2 -89 -11 -89 -7 0 -6 -4 3 -10 13 -9 13 -10 0 -10 -9 0 -11 -3 -5
-8 15 -11 13 -62 -2 -62 -9 0 -13 17 -13 60 0 41 4 60 13 60 8 0 7 4 -3 10
-13 9 -13 10 0 10 10 0 11 3 4 8 -6 4 -11 35 -12 69 -1 48 2 61 12 57 10 -4
14 -30 14 -95z m38 -237 c5 -75 3 -102 -5 -102 -7 0 -10 -4 -7 -9 3 -4 -5 -8
-17 -7 -19 1 -22 7 -22 49 -1 26 7 65 17 85 9 20 17 50 18 66 0 63 10 14 16
-82z"/>
<path d="M2210 1118 c0 -4 18 -8 40 -8 22 0 40 4 40 8 0 4 -18 8 -40 8 -22 0
-40 -3 -40 -8z"/>
<path d="M2210 1010 c0 -5 18 -10 40 -10 22 0 40 5 40 10 0 6 -18 10 -40 10
-22 0 -40 -4 -40 -10z"/>
<path d="M2210 910 c0 -28 2 -30 40 -30 38 0 40 2 40 30 0 17 -5 30 -11 30 -5
0 -9 -8 -7 -17 3 -19 -2 -23 -31 -23 -14 0 -18 5 -14 20 3 11 0 20 -6 20 -6 0
-11 -13 -11 -30z"/>
<path d="M2210 820 c0 -5 18 -10 40 -10 22 0 40 5 40 10 0 6 -18 10 -40 10
-22 0 -40 -4 -40 -10z"/>
<path d="M2210 700 c0 -5 18 -10 40 -10 22 0 40 5 40 10 0 6 -18 10 -40 10
-22 0 -40 -4 -40 -10z"/>
<path d="M1950 1213 c5 -2 10 -11 10 -19 0 -8 9 -14 20 -14 25 0 26 15 3 24
-35 12 -43 14 -33 9z"/>
<path d="M2495 1181 c1 -14 -3 -32 -8 -39 -6 -7 -7 -15 -3 -19 3 -3 6 0 7 8 0
8 4 6 10 -6 6 -15 7 -11 4 17 -3 27 -1 37 11 40 12 2 11 5 -4 14 -16 10 -18 8
-17 -15z"/>
<path d="M495 1039 c-4 -10 -10 -19 -15 -19 -5 0 -8 -9 -7 -19 1 -15 4 -17 14
-9 7 6 13 17 13 24 0 8 5 14 11 14 5 0 8 -4 4 -9 -3 -5 0 -13 6 -17 7 -4 9 -3
5 4 -3 5 -1 12 4 14 6 2 2 11 -9 20 -19 16 -20 16 -26 -3z"/>
<path d="M1975 1030 c-3 -5 -1 -11 4 -15 6 -3 8 -12 4 -20 -3 -8 -1 -15 5 -15
15 0 21 48 6 54 -7 3 -16 1 -19 -4z"/>
<path d="M488 940 c-14 -25 -14 -28 8 -48 13 -11 24 -17 24 -12 0 5 3 17 7 27
6 15 4 16 -8 6 -9 -8 -20 -9 -29 -3 -10 7 -11 10 -2 10 6 0 12 7 12 16 0 8 3
13 8 11 4 -3 13 1 19 8 10 11 9 13 -6 12 -10 0 -25 -13 -33 -27z"/>
<path d="M1930 962 c0 -7 6 -15 14 -18 8 -3 12 -12 9 -20 -3 -8 0 -21 7 -29
14 -17 40 -20 40 -5 0 6 -9 10 -20 10 -11 0 -20 7 -20 16 0 10 5 12 13 7 6 -4
20 -9 30 -10 17 -3 17 -2 3 13 -9 8 -20 13 -25 9 -6 -3 -14 3 -20 12 -6 10
-11 14 -11 8 0 -5 -5 -3 -10 5 -7 10 -10 11 -10 2z"/>
<path d="M1976 833 c-4 -4 -24 -7 -44 -6 l-37 2 35 -9 c19 -4 38 -6 43 -3 5 3
7 -3 5 -12 -4 -23 18 -31 26 -10 3 9 2 13 -4 10 -14 -9 -12 9 2 23 9 9 9 12
-3 12 -9 0 -19 -3 -23 -7z"/>
<path d="M470 741 c0 -5 7 -16 15 -24 11 -11 12 -16 3 -19 -7 -3 -3 -7 9 -10
17 -4 20 -2 16 10 -8 20 -43 55 -43 43z"/>
<path d="M1982 710 c0 -16 4 -30 9 -30 5 0 9 14 9 30 0 17 -4 30 -8 30 -5 0
-9 -13 -10 -30z"/>
<path d="M1915 697 c-20 -20 -20 -20 2 -8 26 13 41 -2 23 -24 -7 -8 -9 -15 -4
-15 5 -1 -2 -7 -15 -14 -23 -13 -23 -13 10 -14 18 0 29 2 23 6 -11 8 -12 27
-1 38 11 12 8 41 -5 46 -7 3 -22 -4 -33 -15z"/>
<path d="M1975 630 c-5 -9 15 -15 38 -11 4 0 7 -5 7 -13 0 -8 5 -18 11 -22 13
-8 36 13 25 23 -4 4 -11 1 -16 -7 -7 -11 -10 -8 -10 14 0 24 -2 27 -15 16 -10
-9 -15 -9 -15 -1 0 14 -17 15 -25 1z"/>
<path d="M620 571 c0 -5 9 -13 20 -16 11 -3 20 -10 20 -15 0 -4 9 -6 20 -3 11
3 20 13 20 22 0 13 -2 13 -9 2 -9 -14 -51 -7 -51 10 0 5 -4 9 -10 9 -5 0 -10
-4 -10 -9z"/>
<path d="M780 556 c-14 -37 -13 -42 10 -43 11 -1 20 3 20 8 0 6 -4 7 -10 4 -5
-3 -10 0 -10 9 0 8 6 16 13 19 9 4 9 7 0 17 -10 11 -14 8 -23 -14z"/>
<path d="M1660 571 c0 -5 10 -13 21 -16 17 -6 18 -9 8 -16 -24 -14 -5 -17 26
-3 25 11 27 13 8 14 -12 0 -28 7 -37 15 -17 17 -26 19 -26 6z"/>
<path d="M1133 563 c4 -6 0 -13 -8 -17 -8 -3 -15 0 -16 7 0 7 -4 3 -9 -8 -5
-11 -9 -15 -9 -9 -1 7 -11 14 -23 17 -22 6 -22 5 -5 -8 18 -13 17 -14 -9 -17
-15 -2 -29 -10 -31 -18 -3 -9 -1 -11 4 -5 8 10 29 15 71 18 12 0 22 5 22 9 0
4 7 8 15 8 18 0 20 16 3 26 -6 4 -8 3 -5 -3z"/>
<path d="M1525 560 c11 -18 -5 -32 -21 -19 -12 10 -13 9 -8 -5 3 -9 10 -16 15
-16 5 0 12 0 16 0 4 0 8 11 10 25 2 14 -1 25 -7 25 -6 0 -8 -4 -5 -10z"/>
</g>
</svg>
